<svg width="170.241455" height="41.000000" viewBox="0 0 170.241 41" fill="none" xmlns="http://www.w3.org/2000/svg" xmlns:xlink="http://www.w3.org/1999/xlink">
	<desc>
			Created with Pixso.
	</desc>
	<defs/>
	<path d="M89.12 18.86L89.12 30L90.13 30L90.13 18.86L93.66 18.86L93.66 18L90.13 18L90.13 16.29Q90.13 15.26 90.39 14.58Q90.6 14.06 90.97 13.73Q91.09 13.62 91.23 13.54Q91.79 13.17 92.63 13.17Q93.08 13.17 93.49 13.27Q93.9 13.36 94.17 13.48L94.17 12.52Q93.9 12.41 93.44 12.32Q92.99 12.24 92.58 12.24Q91.3 12.24 90.47 12.85Q90.23 13.02 90.02 13.25Q89.12 14.27 89.12 16.13L89.12 18L86.73 18L86.73 18.86L89.12 18.86ZM109.98 12.33L109.98 30L110.99 30L110.99 12.33L109.98 12.33ZM58.76 14.01L58.76 30L59.77 30L59.77 14.01L66.06 14.01L66.06 13.07L52.48 13.07L52.48 14.01L58.76 14.01ZM66.66 20.73L66.66 30L67.67 30L67.67 22.31Q67.67 21.52 68.12 20.7Q68.25 20.47 68.39 20.27Q68.8 19.71 69.41 19.3Q69.6 19.17 69.82 19.07Q70.5 18.74 71.34 18.74Q71.65 18.74 71.93 18.76Q72.2 18.79 72.44 18.86L72.49 17.92Q72.25 17.85 71.97 17.83Q71.7 17.8 71.41 17.8Q70.6 17.8 69.76 18.12Q69.42 18.25 69.11 18.43Q68.67 18.69 68.3 19.06Q68.21 19.14 68.13 19.23Q67.81 19.6 67.61 20.07L67.5 18L66.52 18Q66.59 18.67 66.62 19.37Q66.66 20.06 66.66 20.73ZM76.46 29.52Q77.62 30.19 79.16 30.19Q80.46 30.19 81.49 29.66Q81.79 29.5 82.07 29.3Q82.52 28.98 82.86 28.56Q83.19 28.14 83.41 27.64L83.41 30L84.42 30L84.42 20.58Q84.42 19.96 84.48 19.32Q84.54 18.67 84.61 18L83.63 18L83.44 20.42Q83.2 19.85 82.83 19.4Q82.5 19 82.08 18.69Q81.85 18.52 81.6 18.39Q80.54 17.8 79.16 17.8Q77.71 17.8 76.59 18.41Q76.47 18.48 76.35 18.55Q76.06 18.73 75.8 18.95Q74.99 19.63 74.49 20.67Q73.84 22.05 73.84 24Q73.84 25.92 74.48 27.31Q74.97 28.35 75.76 29.03Q76.03 29.26 76.33 29.44Q76.4 29.48 76.46 29.52ZM97.8 29.52Q98.96 30.19 100.5 30.19Q101.8 30.19 102.83 29.66Q103.13 29.5 103.4 29.3Q103.86 28.98 104.19 28.56Q104.52 28.14 104.75 27.64L104.75 30L105.76 30L105.76 20.58Q105.76 19.96 105.82 19.32Q105.88 18.67 105.95 18L104.96 18L104.78 20.42Q104.54 19.85 104.16 19.4Q103.84 19 103.42 18.69Q103.19 18.52 102.94 18.39Q101.88 17.8 100.5 17.8Q99.04 17.8 97.92 18.41Q97.81 18.48 97.69 18.55Q97.39 18.73 97.13 18.95Q96.33 19.63 95.83 20.67Q95.17 22.05 95.17 24Q95.17 25.92 95.82 27.31Q96.3 28.35 97.09 29.03Q97.36 29.26 97.67 29.44Q97.73 29.48 97.8 29.52ZM117.5 34.92Q118.79 35.34 120.26 35.34Q122.51 35.34 123.72 34.22Q123.8 34.15 123.88 34.07Q125.1 32.8 125.1 30.31L125.1 20.58Q125.1 19.96 125.16 19.32Q125.22 18.67 125.29 18L124.31 18L124.12 20.46Q123.87 19.84 123.45 19.35Q123.14 18.98 122.73 18.69Q122.48 18.51 122.21 18.36Q121.15 17.8 119.8 17.8Q118.14 17.8 116.93 18.53Q116.52 18.78 116.17 19.1Q115.49 19.72 115.05 20.6Q114.4 21.93 114.4 23.75Q114.4 25.58 115.05 26.92Q115.5 27.83 116.19 28.45Q116.53 28.76 116.93 29Q118.14 29.73 119.8 29.73Q121.17 29.73 122.23 29.16Q122.49 29.02 122.73 28.85Q123.18 28.52 123.52 28.11Q123.86 27.68 124.09 27.16L124.09 30.48Q124.09 32.32 123.18 33.33Q123.15 33.36 123.12 33.39Q123.03 33.49 122.94 33.57Q121.98 34.41 120.28 34.41Q119.36 34.41 118.61 34.25Q118.25 34.18 117.9 34.06Q117.52 33.94 117.16 33.76Q116.46 33.43 115.67 32.85L115.19 33.67Q115.59 33.99 116.02 34.26Q116.72 34.67 117.5 34.92ZM131.11 29.52Q132.27 30.19 133.81 30.19Q135.11 30.19 136.14 29.66Q136.44 29.5 136.72 29.3Q137.17 28.98 137.5 28.56Q137.84 28.14 138.06 27.64L138.06 30L139.07 30L139.07 20.58Q139.07 19.96 139.13 19.32Q139.19 18.67 139.26 18L138.27 18L138.09 20.42Q137.85 19.85 137.48 19.4Q137.15 19 136.73 18.69Q136.5 18.52 136.25 18.39Q135.19 17.8 133.81 17.8Q132.36 17.8 131.24 18.41Q131.12 18.48 131 18.55Q130.71 18.73 130.44 18.95Q129.64 19.63 129.14 20.67Q128.48 22.05 128.48 24Q128.48 25.92 129.13 27.31Q129.61 28.35 130.41 29.03Q130.67 29.26 130.98 29.44Q131.05 29.48 131.11 29.52ZM143.24 20.73L143.24 30L144.25 30L144.25 22.31Q144.25 21.52 144.71 20.7Q144.83 20.47 144.98 20.27Q145.39 19.71 145.99 19.3Q146.19 19.17 146.4 19.07Q147.08 18.74 147.92 18.74Q148.24 18.74 148.51 18.76Q148.79 18.79 149.03 18.86L149.08 17.92Q148.84 17.85 148.56 17.83Q148.28 17.8 148 17.8Q147.18 17.8 146.35 18.12Q146 18.25 145.69 18.43Q145.25 18.69 144.88 19.06Q144.8 19.14 144.72 19.23Q144.4 19.6 144.2 20.07L144.09 18L143.1 18Q143.17 18.67 143.21 19.37Q143.24 20.06 143.24 20.73ZM81.36 28.69Q80.43 29.25 79.16 29.25Q77.92 29.25 76.99 28.71Q76.46 28.39 76.03 27.9Q74.87 26.54 74.87 24Q74.87 21.45 76.03 20.1Q76.46 19.6 77 19.28Q77.93 18.74 79.16 18.74Q80.42 18.74 81.34 19.29Q81.87 19.61 82.28 20.1Q83.44 21.45 83.44 24Q83.44 26.54 82.28 27.9Q81.87 28.38 81.36 28.69ZM102.69 28.69Q101.76 29.25 100.5 29.25Q99.25 29.25 98.33 28.71Q97.8 28.39 97.37 27.9Q96.2 26.54 96.2 24Q96.2 21.45 97.37 20.1Q97.8 19.6 98.34 19.28Q99.26 18.74 100.5 18.74Q101.76 18.74 102.68 19.29Q103.2 19.61 103.62 20.1Q104.78 21.45 104.78 24Q104.78 26.54 103.62 27.9Q103.21 28.38 102.69 28.69ZM122.08 28.19Q121.12 28.79 119.77 28.79Q118.45 28.79 117.48 28.2Q117 27.91 116.6 27.46Q115.43 26.13 115.43 23.75Q115.43 21.38 116.6 20.06Q116.99 19.63 117.47 19.34Q118.44 18.74 119.77 18.74Q121.12 18.74 122.09 19.35Q122.55 19.64 122.93 20.06Q124.09 21.38 124.09 23.75Q124.09 26.13 122.93 27.46Q122.55 27.9 122.08 28.19ZM136 28.69Q135.08 29.25 133.81 29.25Q132.57 29.25 131.64 28.71Q131.11 28.39 130.68 27.9Q129.52 26.54 129.52 24Q129.52 21.45 130.68 20.1Q131.11 19.6 131.65 19.28Q132.57 18.74 133.81 18.74Q135.07 18.74 135.99 19.29Q136.52 19.61 136.93 20.1Q138.09 21.45 138.09 24Q138.09 26.54 136.93 27.9Q136.52 28.38 136 28.69Z" fill="#FFFFFF" fill-opacity="1.000000" fill-rule="evenodd"/>
	<ellipse cx="20.259521" cy="20.500000" rx="20.259418" ry="20.500000" fill="#FFFFFF" fill-opacity="1.000000"/>
	<path d="M19.91 13.68L19.91 31L21.01 31L21.01 13.68L27.82 13.68L27.82 12.66L13.1 12.66L13.1 13.68L19.91 13.68Z" fill="#5B9BF3" fill-opacity="1.000000" fill-rule="evenodd"/>
</svg>
